<svg xmlns="http://www.w3.org/2000/svg" width="820" height="210" viewBox="0 0 820 210" fill="none" role="img" aria-label="Sayem Khan — Agentic AI Engineer / ML Researcher / Builder">
  <defs>
    <linearGradient id="bgGrad" x1="0" y1="0" x2="1" y2="1">
      <stop offset="0%" stop-color="#0d1117"/><stop offset="100%" stop-color="#131a26"/>
    </linearGradient>
    <linearGradient id="nameGrad" gradientUnits="userSpaceOnUse" x1="0" y1="0" x2="280" y2="0" spreadMethod="repeat">
      <stop offset="0%" stop-color="#6366f1"/><stop offset="35%" stop-color="#22d3ee"/>
      <stop offset="70%" stop-color="#a78bfa"/><stop offset="100%" stop-color="#6366f1"/>
      <animateTransform attributeName="gradientTransform" type="translate" from="-280 0" to="280 0" dur="5s" repeatCount="indefinite"/>
    </linearGradient>
    <linearGradient id="roleGrad" x1="0" y1="0" x2="1" y2="0">
      <stop offset="0%" stop-color="#6366f1"/><stop offset="100%" stop-color="#22d3ee"/>
    </linearGradient>
    <linearGradient id="lineGrad" x1="0" y1="0" x2="1" y2="0">
      <stop offset="0%" stop-color="#6366f1"/><stop offset="100%" stop-color="#22d3ee"/>
    </linearGradient>
  </defs>

  <rect x="0" y="0" width="820" height="210" rx="16" fill="url(#bgGrad)"/>

  <g transform="translate(40 102) scale(0.056 -0.056)" fill="url(#nameGrad)"><path transform="translate(0 0)" d="M259 0H117V76H269Q306 76 329.0 98.0Q352 120 352 151V255Q352 285 336.5 303.5Q321 322 290 322H260Q186 322 143.0 365.5Q100 409 100 492V530Q100 615 146.5 657.5Q193 700 280 700H423V624H270Q233 624 210.0 602.0Q187 580 187 549V473Q187 442 207.0 421.5Q227 401 259 401H289Q360 401 399.5 360.0Q439 319 439 236V170Q439 85 392.5 42.5Q346 0 259 0Z"/><path transform="translate(540 0)" d="M362 30Q339 0 301 0H212Q136 0 101.5 30.5Q67 61 67 135V155Q67 310 213 310H337V360Q337 391 318.0 408.0Q299 425 262 425H107V500H252Q339 500 380.5 462.0Q422 424 422 340V100Q422 85 433.5 77.5Q445 70 472 70V0H417Q404 0 388.5 8.0Q373 16 362 30ZM337 125V235H212Q186 235 169.0 218.0Q152 201 152 175V125Q152 99 164.0 87.0Q176 75 202 75H291Q321 75 329.0 89.0Q337 103 337 125Z"/><path transform="translate(1080 0)" d="M234 -55 248 0H228L63 500H155L280 81L389 500H476L321 -54Q308 -105 289.0 -130.0Q270 -155 246.5 -162.5Q223 -170 186 -170H138V-95H180Q204 -95 216.0 -86.0Q228 -77 234 -55Z"/><path transform="translate(1620 0)" d="M94 160V340Q94 426 131.0 463.0Q168 500 254 500H301Q372 500 408.5 460.5Q445 421 445 345V215H179V140Q179 109 198.0 92.0Q217 75 254 75H413V0H264Q176 0 135.0 37.5Q94 75 94 160ZM362 365Q362 391 345.0 408.0Q328 425 302 425H244Q208 425 193.5 408.5Q179 392 179 360V290H362Z"/><path transform="translate(2160 0)" d="M118 500V477Q144 500 180 500H186Q256 500 285 460Q318 500 372 500H378Q439 500 468.0 469.0Q497 438 497 359V0H417V360Q417 401 408.5 417.0Q400 433 370 433H364Q334 433 322.5 412.5Q311 392 310 367V0H230V360Q230 402 220.0 417.5Q210 433 184 433H178Q148 433 136.0 415.5Q124 398 123 376V0H43V500Z"/><path transform="translate(3240 0)" d="M168 258V0H81V700H168V398L358 700H453L260 391L465 0H365L206 315Z"/><path transform="translate(3780 0)" d="M172 700V480Q202 500 247 500H293Q374 500 413.5 462.0Q453 424 453 340V0H368V360Q368 390 350.5 407.5Q333 425 303 425H237Q205 425 189.0 408.5Q173 392 172 373V0H87V700Z"/><path transform="translate(4320 0)" d="M362 30Q339 0 301 0H212Q136 0 101.5 30.5Q67 61 67 135V155Q67 310 213 310H337V360Q337 391 318.0 408.0Q299 425 262 425H107V500H252Q339 500 380.5 462.0Q422 424 422 340V100Q422 85 433.5 77.5Q445 70 472 70V0H417Q404 0 388.5 8.0Q373 16 362 30ZM337 125V235H212Q186 235 169.0 218.0Q152 201 152 175V125Q152 99 164.0 87.0Q176 75 202 75H291Q321 75 329.0 89.0Q337 103 337 125Z"/><path transform="translate(4860 0)" d="M167 500V476Q198 500 247 500H293Q374 500 413.5 462.0Q453 424 453 340V0H368V360Q368 390 350.5 407.5Q333 425 303 425H237Q204 425 188.0 407.5Q172 390 172 370V0H87V500Z"/></g>

  <path d="M 42 118 L 348 118" stroke="url(#lineGrad)" stroke-width="4" stroke-linecap="round"
        stroke-dasharray="306" stroke-dashoffset="306">
    <animate attributeName="stroke-dashoffset" from="306" to="0" dur="1.4s" begin="0.2s" fill="freeze" calcMode="spline" keySplines="0.16 1 0.3 1" keyTimes="0;1" values="306;0"/>
  </path>

  <g opacity="0">
    <g transform="translate(44 162) scale(0.022 -0.022)" fill="url(#roleGrad)"><path transform="translate(0 0)" d="M173 177 134 0H45L214 700H329L495 0H406L368 177ZM352 252 270 634 189 252Z"/><path transform="translate(540 0)" d="M300 -170H92V-95H310Q346 -95 364.0 -81.0Q382 -67 382 -45V-13Q382 10 364.0 23.5Q346 37 310 37H137V175Q104 193 88.0 227.0Q72 261 72 315V340Q72 424 113.5 462.0Q155 500 242 500H452V315Q452 240 411.0 197.5Q370 155 302 155H222V112H300Q386 112 426.5 78.5Q467 45 467 -23V-35Q467 -103 426.5 -136.5Q386 -170 300 -170ZM367 292V425H232Q195 425 176.0 408.0Q157 391 157 360V295Q157 264 176.0 247.0Q195 230 232 230H302Q333 230 349.0 250.0Q365 270 367 292Z"/><path transform="translate(1080 0)" d="M94 160V340Q94 426 131.0 463.0Q168 500 254 500H301Q372 500 408.5 460.5Q445 421 445 345V215H179V140Q179 109 198.0 92.0Q217 75 254 75H413V0H264Q176 0 135.0 37.5Q94 75 94 160ZM362 365Q362 391 345.0 408.0Q328 425 302 425H244Q208 425 193.5 408.5Q179 392 179 360V290H362Z"/><path transform="translate(1620 0)" d="M167 500V476Q198 500 247 500H293Q374 500 413.5 462.0Q453 424 453 340V0H368V360Q368 390 350.5 407.5Q333 425 303 425H237Q204 425 188.0 407.5Q172 390 172 370V0H87V500Z"/><path transform="translate(2160 0)" d="M202 120V425H107V500H202V620H287V500H433V425H287V115Q287 93 298.0 84.0Q309 75 332 75H433V0H307Q256 0 229.0 33.0Q202 66 202 120Z"/><path transform="translate(2700 0)" d="M317 700V610H222V700ZM80 425V500H312V75H460V0H227V425Z"/><path transform="translate(3240 0)" d="M120 160V340Q120 424 161.5 462.0Q203 500 290 500H419V425H280Q243 425 224.0 408.0Q205 391 205 360V140Q205 109 224.0 92.0Q243 75 280 75H419V0H290Q202 0 161.0 37.5Q120 75 120 160Z"/><path transform="translate(4320 0)" d="M173 177 134 0H45L214 700H329L495 0H406L368 177ZM352 252 270 634 189 252Z"/><path transform="translate(4860 0)" d="M226 73V627H136V700H403V627H313V73H403V0H136V73Z"/><path transform="translate(5940 0)" d="M437 700V627H190V398H412V325H190V73H437V0H103V700Z"/><path transform="translate(6480 0)" d="M167 500V476Q198 500 247 500H293Q374 500 413.5 462.0Q453 424 453 340V0H368V360Q368 390 350.5 407.5Q333 425 303 425H237Q204 425 188.0 407.5Q172 390 172 370V0H87V500Z"/><path transform="translate(7020 0)" d="M300 -170H92V-95H310Q346 -95 364.0 -81.0Q382 -67 382 -45V-13Q382 10 364.0 23.5Q346 37 310 37H137V175Q104 193 88.0 227.0Q72 261 72 315V340Q72 424 113.5 462.0Q155 500 242 500H452V315Q452 240 411.0 197.5Q370 155 302 155H222V112H300Q386 112 426.5 78.5Q467 45 467 -23V-35Q467 -103 426.5 -136.5Q386 -170 300 -170ZM367 292V425H232Q195 425 176.0 408.0Q157 391 157 360V295Q157 264 176.0 247.0Q195 230 232 230H302Q333 230 349.0 250.0Q365 270 367 292Z"/><path transform="translate(7560 0)" d="M317 700V610H222V700ZM80 425V500H312V75H460V0H227V425Z"/><path transform="translate(8100 0)" d="M167 500V476Q198 500 247 500H293Q374 500 413.5 462.0Q453 424 453 340V0H368V360Q368 390 350.5 407.5Q333 425 303 425H237Q204 425 188.0 407.5Q172 390 172 370V0H87V500Z"/><path transform="translate(8640 0)" d="M94 160V340Q94 426 131.0 463.0Q168 500 254 500H301Q372 500 408.5 460.5Q445 421 445 345V215H179V140Q179 109 198.0 92.0Q217 75 254 75H413V0H264Q176 0 135.0 37.5Q94 75 94 160ZM362 365Q362 391 345.0 408.0Q328 425 302 425H244Q208 425 193.5 408.5Q179 392 179 360V290H362Z"/><path transform="translate(9180 0)" d="M94 160V340Q94 426 131.0 463.0Q168 500 254 500H301Q372 500 408.5 460.5Q445 421 445 345V215H179V140Q179 109 198.0 92.0Q217 75 254 75H413V0H264Q176 0 135.0 37.5Q94 75 94 160ZM362 365Q362 391 345.0 408.0Q328 425 302 425H244Q208 425 193.5 408.5Q179 392 179 360V290H362Z"/><path transform="translate(9720 0)" d="M173 75V425H100V500H253V473Q286 500 333 500H436V420H323Q291 420 275.0 399.5Q259 379 258 358V75H367V0H100V75Z"/><path transform="translate(10800 0)" d="M406 810H490L134 -110H50Z"/><path transform="translate(11880 0)" d="M310 235H227L129 628V0H53V700H192L272 342L353 700H488V0H410V628Z"/><path transform="translate(12420 0)" d="M202 700V76H425V0H115V700Z"/><path transform="translate(13500 0)" d="M157 290V0H70V700H258Q343 700 386.5 662.5Q430 625 430 544V448Q430 335 340 307L479 0H384L255 290ZM270 625H157V365H270Q308 365 325.5 382.5Q343 400 343 438V553Q343 591 325.5 608.0Q308 625 270 625Z"/><path transform="translate(14040 0)" d="M94 160V340Q94 426 131.0 463.0Q168 500 254 500H301Q372 500 408.5 460.5Q445 421 445 345V215H179V140Q179 109 198.0 92.0Q217 75 254 75H413V0H264Q176 0 135.0 37.5Q94 75 94 160ZM362 365Q362 391 345.0 408.0Q328 425 302 425H244Q208 425 193.5 408.5Q179 392 179 360V290H362Z"/><path transform="translate(14580 0)" d="M272 0H123V75H282Q309 75 323.0 86.5Q337 98 337 120V173Q337 218 294 218H257Q187 218 152.5 248.5Q118 279 118 345V374Q118 441 156.0 470.5Q194 500 268 500H402V425H258Q233 425 218.0 413.5Q203 402 203 380V344Q203 321 216.5 310.0Q230 299 251 299H285Q352 299 387.0 266.5Q422 234 422 170V125Q422 62 383.5 31.0Q345 0 272 0Z"/><path transform="translate(15120 0)" d="M94 160V340Q94 426 131.0 463.0Q168 500 254 500H301Q372 500 408.5 460.5Q445 421 445 345V215H179V140Q179 109 198.0 92.0Q217 75 254 75H413V0H264Q176 0 135.0 37.5Q94 75 94 160ZM362 365Q362 391 345.0 408.0Q328 425 302 425H244Q208 425 193.5 408.5Q179 392 179 360V290H362Z"/><path transform="translate(15660 0)" d="M362 30Q339 0 301 0H212Q136 0 101.5 30.5Q67 61 67 135V155Q67 310 213 310H337V360Q337 391 318.0 408.0Q299 425 262 425H107V500H252Q339 500 380.5 462.0Q422 424 422 340V100Q422 85 433.5 77.5Q445 70 472 70V0H417Q404 0 388.5 8.0Q373 16 362 30ZM337 125V235H212Q186 235 169.0 218.0Q152 201 152 175V125Q152 99 164.0 87.0Q176 75 202 75H291Q321 75 329.0 89.0Q337 103 337 125Z"/><path transform="translate(16200 0)" d="M173 75V425H100V500H253V473Q286 500 333 500H436V420H323Q291 420 275.0 399.5Q259 379 258 358V75H367V0H100V75Z"/><path transform="translate(16740 0)" d="M120 160V340Q120 424 161.5 462.0Q203 500 290 500H419V425H280Q243 425 224.0 408.0Q205 391 205 360V140Q205 109 224.0 92.0Q243 75 280 75H419V0H290Q202 0 161.0 37.5Q120 75 120 160Z"/><path transform="translate(17280 0)" d="M172 700V480Q202 500 247 500H293Q374 500 413.5 462.0Q453 424 453 340V0H368V360Q368 390 350.5 407.5Q333 425 303 425H237Q205 425 189.0 408.5Q173 392 172 373V0H87V700Z"/><path transform="translate(17820 0)" d="M94 160V340Q94 426 131.0 463.0Q168 500 254 500H301Q372 500 408.5 460.5Q445 421 445 345V215H179V140Q179 109 198.0 92.0Q217 75 254 75H413V0H264Q176 0 135.0 37.5Q94 75 94 160ZM362 365Q362 391 345.0 408.0Q328 425 302 425H244Q208 425 193.5 408.5Q179 392 179 360V290H362Z"/><path transform="translate(18360 0)" d="M173 75V425H100V500H253V473Q286 500 333 500H436V420H323Q291 420 275.0 399.5Q259 379 258 358V75H367V0H100V75Z"/><path transform="translate(19440 0)" d="M406 810H490L134 -110H50Z"/><path transform="translate(20520 0)" d="M285 0H85V700H273Q362 700 403.5 664.0Q445 628 445 544V487Q445 410 390 371Q455 335 455 248V158Q455 72 415.5 36.0Q376 0 285 0ZM285 625H172V404H285Q316 404 337.0 424.0Q358 444 358 477V553Q358 591 340.5 608.0Q323 625 285 625ZM295 329H172V75H294Q332 75 350.0 92.5Q368 110 368 148V257Q368 290 348.0 309.5Q328 329 295 329Z"/><path transform="translate(21060 0)" d="M287 0H253Q172 0 132.5 38.0Q93 76 93 160V500H178V140Q178 110 195.5 92.5Q213 75 243 75H297Q329 75 344.5 91.0Q360 107 362 127V500H447V0H367V23Q334 0 287 0Z"/><path transform="translate(21600 0)" d="M317 700V610H222V700ZM80 425V500H312V75H460V0H227V425Z"/><path transform="translate(22140 0)" d="M217 100V625H70V700H302V105Q302 89 310.0 82.0Q318 75 337 75H470V0H302Q268 0 242.5 24.0Q217 48 217 100Z"/><path transform="translate(22680 0)" d="M295 0H254Q166 0 125.0 37.5Q84 75 84 160V340Q84 424 125.5 462.0Q167 500 254 500H370V700H455V0H375V23Q342 0 295 0ZM370 130V425H244Q207 425 188.0 408.0Q169 391 169 360V140Q169 109 188.0 92.0Q207 75 244 75H305Q338 75 354.0 92.5Q370 110 370 130Z"/><path transform="translate(23220 0)" d="M94 160V340Q94 426 131.0 463.0Q168 500 254 500H301Q372 500 408.5 460.5Q445 421 445 345V215H179V140Q179 109 198.0 92.0Q217 75 254 75H413V0H264Q176 0 135.0 37.5Q94 75 94 160ZM362 365Q362 391 345.0 408.0Q328 425 302 425H244Q208 425 193.5 408.5Q179 392 179 360V290H362Z"/><path transform="translate(23760 0)" d="M173 75V425H100V500H253V473Q286 500 333 500H436V420H323Q291 420 275.0 399.5Q259 379 258 358V75H367V0H100V75Z"/></g>
    <animate attributeName="opacity" from="0" to="1" dur="0.9s" begin="1.0s" fill="freeze"/>
  </g>

  <g fill="#22d3ee">
    <circle cx="730" cy="55" r="5" opacity="0.85"><animate attributeName="cy" values="55;43;55" dur="4s" repeatCount="indefinite" calcMode="spline" keySplines="0.45 0 0.55 1;0.45 0 0.55 1" keyTimes="0;0.5;1"/></circle>
    <circle cx="772" cy="84" r="4" fill="#a78bfa" opacity="0.85"><animate attributeName="cy" values="84;70;84" dur="5s" repeatCount="indefinite" calcMode="spline" keySplines="0.45 0 0.55 1;0.45 0 0.55 1" keyTimes="0;0.5;1"/></circle>
    <circle cx="788" cy="50" r="3" fill="#6366f1" opacity="0.85"><animate attributeName="cy" values="50;38;50" dur="3.4s" repeatCount="indefinite" calcMode="spline" keySplines="0.45 0 0.55 1;0.45 0 0.55 1" keyTimes="0;0.5;1"/></circle>
  </g>
  <g stroke="#6366f1" stroke-width="1" opacity="0.4">
    <line x1="730" y1="55" x2="772" y2="84"/><line x1="772" y1="84" x2="788" y2="50"/><line x1="788" y1="50" x2="730" y2="55"/>
  </g>
</svg>
