<svg xmlns="http://www.w3.org/2000/svg" width="820" height="210" viewBox="0 0 820 210" fill="none" role="img" aria-label="Sayem Khan — Agentic AI Engineer / ML Researcher / Builder">
  <defs>
    <linearGradient id="bgGrad" x1="0" y1="0" x2="1" y2="1">
      <stop offset="0%" stop-color="#0d1117"/><stop offset="100%" stop-color="#131a26"/>
    </linearGradient>
    <linearGradient id="nameGrad" gradientUnits="userSpaceOnUse" x1="0" y1="0" x2="280" y2="0" spreadMethod="repeat">
      <stop offset="0%" stop-color="#6366f1"/><stop offset="35%" stop-color="#22d3ee"/>
      <stop offset="70%" stop-color="#a78bfa"/><stop offset="100%" stop-color="#6366f1"/>
      <animateTransform attributeName="gradientTransform" type="translate" from="-280 0" to="280 0" dur="5s" repeatCount="indefinite"/>
    </linearGradient>
    <linearGradient id="roleGrad" x1="0" y1="0" x2="1" y2="0">
      <stop offset="0%" stop-color="#6366f1"/><stop offset="100%" stop-color="#22d3ee"/>
    </linearGradient>
    <linearGradient id="lineGrad" x1="0" y1="0" x2="1" y2="0">
      <stop offset="0%" stop-color="#6366f1"/><stop offset="100%" stop-color="#22d3ee"/>
    </linearGradient>
  </defs>

  <rect x="0" y="0" width="820" height="210" rx="16" fill="url(#bgGrad)"/>

  <g transform="translate(40 102) scale(0.02734375 -0.02734375)" fill="url(#nameGrad)"><path transform="translate(0 0)" d="M100 1131Q100 1287 208.0 1398.5Q316 1510 469 1510Q681 1510 854 1445Q926 1418 926 1362Q926 1293 857 1293Q828 1293 766 1317Q637 1367 491 1367Q359 1367 290 1273Q248 1216 248 1123Q248 996 403 917L768 732Q1005 610 1005 378Q1005 204 881 97Q769 0 612 0Q374 0 156 143Q100 180 100 225Q100 294 174 294Q201 294 246 262Q404 149 625 149Q690 149 742 176Q857 236 857 383Q857 522 706 598L313 797Q100 905 100 1131Z"/><path transform="translate(1105 0)" d="M414 461Q331 461 289.5 411.5Q248 362 248 302Q248 236 295.5 193.5Q343 151 400 151H706V461ZM254 915Q179 915 179 989Q179 1061 254 1061H565Q694 1061 775.0 964.5Q856 868 856 766V94Q856 51 833.0 25.5Q810 0 770 0H390Q277 0 188.5 92.0Q100 184 100 300Q100 429 184.5 517.5Q269 606 394 606H706V790Q706 828 661.0 871.5Q616 915 561 915Z"/><path transform="translate(2091 0)" d="M835 915 399 -387Q376 -456 310 -456Q310 -456 181 -456Q100 -456 100 -385Q100 -311 184 -311H269Q269 -311 392 61L113 920Q100 957 100 985Q100 1054 173 1054Q225 1054 247 985L471 296L708 993Q729 1054 777 1054Q851 1054 851 985Q851 963 835 915Z"/><path transform="translate(3042 0)" d="M280 604H739Q739 760 689 828Q626 914 515 914Q409 914 330 826Q280 770 280 604ZM130 698Q130 856 261 966Q375 1062 512 1062Q675 1062 789 937Q882 835 882 724V534Q882 462 815 462H278V330Q278 146 434 146H797Q885 146 885 72Q885 0 798 0H430Q309 0 217 97Q130 189 130 316Q130 316 130 698Z"/><path transform="translate(4057 0)" d="M130 991Q130 1026 156 1050Q172 1065 213 1065Q213 1065 869 1065Q999 1065 1084 987Q1185 895 1185 776Q1185 776 1185 92Q1185 4 1115 4Q1038 4 1038 95Q1038 95 1038 761Q1038 830 996 870Q947 917 874 917H732V94Q732 7 661 7Q581 7 581 87V917H274V82Q274 6 202.0 6.0Q130 6 130 77Z"/><path transform="translate(6262 0)" d="M219 3Q150 3 150 96V1444Q150 1510 219 1510Q294 1510 294 1435V797L914 1477Q949 1515 979.0 1515.0Q1009 1515 1031 1490Q1052 1466 1052 1438Q1052 1412 1016 1372L600 911L1036 124Q1055 90 1055 74Q1055 43 1028 20Q1005 0 976 0Q939 0 914 45L497 798L296 578V99Q296 3 219 3Z"/><path transform="translate(7417 0)" d="M150 1426Q150 1515 225 1515Q296 1515 296 1430V1060H606Q725 1060 823 967Q901 893 901 761V84Q901 6 835 6Q758 6 758 86V744Q758 916 582 916H296V87Q296 6 220 6Q150 6 150 92Z"/><path transform="translate(8448 0)" d="M414 461Q331 461 289.5 411.5Q248 362 248 302Q248 236 295.5 193.5Q343 151 400 151H706V461ZM254 915Q179 915 179 989Q179 1061 254 1061H565Q694 1061 775.0 964.5Q856 868 856 766V94Q856 51 833.0 25.5Q810 0 770 0H390Q277 0 188.5 92.0Q100 184 100 300Q100 429 184.5 517.5Q269 606 394 606H706V790Q706 828 661.0 871.5Q616 915 561 915Z"/><path transform="translate(9434 0)" d="M130 988Q130 1063 203 1063Q203 1063 588 1063Q709 1063 807 966Q881 893 881 774Q881 774 881 103Q881 7 811 7Q735 7 735 105Q735 105 735 762Q735 835 696 870Q649 914 593 914Q593 914 271 914V92Q271 8 201 8Q130 8 130 91Q130 91 130 988Z"/></g>

  <path d="M 42 118 L 332 118" stroke="url(#lineGrad)" stroke-width="4" stroke-linecap="round"
        stroke-dasharray="290" stroke-dashoffset="290">
    <animate attributeName="stroke-dashoffset" from="290" to="0" dur="1.4s" begin="0.2s" fill="freeze" calcMode="spline" keySplines="0.16 1 0.3 1" keyTimes="0;1" values="290;0"/>
  </path>

  <g opacity="0">
    <g transform="translate(44 162) scale(0.0107421875 -0.0107421875)" fill="url(#roleGrad)"><path transform="translate(0 0)" d="M564 1455Q582 1510 634 1510Q684 1510 702 1455L1149 111Q1158 84 1158 67Q1158 8 1086 0Q1033 0 1011 66Q1011 66 909 382H355L246 58Q225 -3 178 -3Q100 -3 100 70Q100 80 122 145ZM630 1206 400 523H861Z"/><path transform="translate(1258 0)" d="M445 911Q375 911 324 867Q272 822 272 743V326Q272 236 316 189Q357 145 438 145H734V911ZM433 1057Q433 1057 804 1057Q879 1057 879 975Q879 975 879 -181Q879 -295 794 -376Q710 -456 594 -456Q594 -456 281 -456Q203 -456 203 -385Q203 -311 285 -311Q285 -311 537 -311Q731 -311 731 -169V0Q731 0 407 0Q285 0 207 91Q130 181 130 306Q130 306 130 764Q130 887 214 969Q304 1057 433 1057Z"/><path transform="translate(2287 0)" d="M280 604H739Q739 760 689 828Q626 914 515 914Q409 914 330 826Q280 770 280 604ZM130 698Q130 856 261 966Q375 1062 512 1062Q675 1062 789 937Q882 835 882 724V534Q882 462 815 462H278V330Q278 146 434 146H797Q885 146 885 72Q885 0 798 0H430Q309 0 217 97Q130 189 130 316Q130 316 130 698Z"/><path transform="translate(3302 0)" d="M130 988Q130 1063 203 1063Q203 1063 588 1063Q709 1063 807 966Q881 893 881 774Q881 774 881 103Q881 7 811 7Q735 7 735 105Q735 105 735 762Q735 835 696 870Q649 914 593 914Q593 914 271 914V92Q271 8 201 8Q130 8 130 91Q130 91 130 988Z"/><path transform="translate(4313 0)" d="M210 1435Q210 1511 285 1511Q354 1511 354 1431Q354 1431 354 1054Q354 1054 583 1054Q661 1054 661 976Q661 912 581 912H354V77Q354 0 282.0 0.0Q210 0 210 84V912H134Q60 912 60 982Q60 1054 133 1054H210Z"/><path transform="translate(5024 0)" d="M297 980V88Q297 5 225 5Q150 5 150 86V979Q150 1061 224 1061Q297 1061 297 980ZM153 1445Q153 1515 222 1515Q296 1515 296 1440V1375Q296 1297 220 1297Q153 1297 153 1370Z"/><path transform="translate(5471 0)" d="M653 1062Q729 1062 729 992Q729 917 653 917Q653 917 454 917Q276 917 276 749Q276 749 276 332Q276 151 444 151H648Q729 151 729 74Q729 4 652 4Q652 4 419 4Q299 4 212 92Q130 175 130 296Q130 296 130 753Q130 890 210 970Q302 1062 440 1062Q440 1062 653 1062Z"/><path transform="translate(7190 0)" d="M564 1455Q582 1510 634 1510Q684 1510 702 1455L1149 111Q1158 84 1158 67Q1158 8 1086 0Q1033 0 1011 66Q1011 66 909 382H355L246 58Q225 -3 178 -3Q100 -3 100 70Q100 80 122 145ZM630 1206 400 523H861Z"/><path transform="translate(8448 0)" d="M150 94V1420Q150 1510 226.0 1510.0Q302 1510 302 1417V96Q302 0 226.0 0.0Q150 0 150 94Z"/><path transform="translate(9790 0)" d="M294 149H827Q901 149 901 77Q901 5 830 5H216Q150 5 150 80V1437Q150 1515 239 1515H822Q903 1515 903 1442Q903 1370 822 1370H294V904H680Q753 904 753 832Q753 764 682 764H294Z"/><path transform="translate(10793 0)" d="M130 988Q130 1063 203 1063Q203 1063 588 1063Q709 1063 807 966Q881 893 881 774Q881 774 881 103Q881 7 811 7Q735 7 735 105Q735 105 735 762Q735 835 696 870Q649 914 593 914Q593 914 271 914V92Q271 8 201 8Q130 8 130 91Q130 91 130 988Z"/><path transform="translate(11804 0)" d="M445 911Q375 911 324 867Q272 822 272 743V326Q272 236 316 189Q357 145 438 145H734V911ZM433 1057Q433 1057 804 1057Q879 1057 879 975Q879 975 879 -181Q879 -295 794 -376Q710 -456 594 -456Q594 -456 281 -456Q203 -456 203 -385Q203 -311 285 -311Q285 -311 537 -311Q731 -311 731 -169V0Q731 0 407 0Q285 0 207 91Q130 181 130 306Q130 306 130 764Q130 887 214 969Q304 1057 433 1057Z"/><path transform="translate(12833 0)" d="M297 980V88Q297 5 225 5Q150 5 150 86V979Q150 1061 224 1061Q297 1061 297 980ZM153 1445Q153 1515 222 1515Q296 1515 296 1440V1375Q296 1297 220 1297Q153 1297 153 1370Z"/><path transform="translate(13280 0)" d="M130 988Q130 1063 203 1063Q203 1063 588 1063Q709 1063 807 966Q881 893 881 774Q881 774 881 103Q881 7 811 7Q735 7 735 105Q735 105 735 762Q735 835 696 870Q649 914 593 914Q593 914 271 914V92Q271 8 201 8Q130 8 130 91Q130 91 130 988Z"/><path transform="translate(14291 0)" d="M280 604H739Q739 760 689 828Q626 914 515 914Q409 914 330 826Q280 770 280 604ZM130 698Q130 856 261 966Q375 1062 512 1062Q675 1062 789 937Q882 835 882 724V534Q882 462 815 462H278V330Q278 146 434 146H797Q885 146 885 72Q885 0 798 0H430Q309 0 217 97Q130 189 130 316Q130 316 130 698Z"/><path transform="translate(15306 0)" d="M280 604H739Q739 760 689 828Q626 914 515 914Q409 914 330 826Q280 770 280 604ZM130 698Q130 856 261 966Q375 1062 512 1062Q675 1062 789 937Q882 835 882 724V534Q882 462 815 462H278V330Q278 146 434 146H797Q885 146 885 72Q885 0 798 0H430Q309 0 217 97Q130 189 130 316Q130 316 130 698Z"/><path transform="translate(16321 0)" d="M130 979Q130 1061 215 1061Q215 1061 650 1061Q734 1061 734 992Q734 992 734 845Q734 762 668 762Q588 762 588 840Q588 840 588 914H278V82Q278 3 201 3Q130 3 130 85Q130 85 130 979Z"/><path transform="translate(18045 0)" d="M130 67Q130 89 148 130L730 1447Q758 1510 804 1510Q876 1510 876 1442Q876 1416 866 1391L279 62Q252 0 208 0Q130 0 130 67Z"/><path transform="translate(19941 0)" d="M1074 1472Q1098 1510 1138 1510Q1214 1510 1214 1430V99Q1214 0 1140.0 0.0Q1066 0 1066 99V1172L754 664Q716 601 678.0 601.0Q640 601 604 662L298 1170V94Q298 0 221 0Q150 0 150 92V1431Q150 1510 226 1510Q265 1510 288 1475L674 824Z"/><path transform="translate(21305 0)" d="M295 1433V145H816Q907 145 907.0 72.5Q907 0 813 0H221Q150 0 150 89V1433Q150 1510 222.5 1510.0Q295 1510 295 1433Z"/><path transform="translate(23202 0)" d="M297 751Q297 751 624 751Q728 751 832 850Q913 927 913 1067Q913 1173 825 1264Q732 1361 623 1361H297ZM228 1504H623Q806 1504 956 1340Q1055 1232 1055 1093Q1055 959 1005 841Q950 712 778 640L1039 127Q1054 96 1054 76Q1054 0 980 0Q941 0 913 57L633 604H294V79Q294 0 221 0Q150 0 150 80V1427Q150 1504 228 1504Z"/><path transform="translate(24357 0)" d="M280 604H739Q739 760 689 828Q626 914 515 914Q409 914 330 826Q280 770 280 604ZM130 698Q130 856 261 966Q375 1062 512 1062Q675 1062 789 937Q882 835 882 724V534Q882 462 815 462H278V330Q278 146 434 146H797Q885 146 885 72Q885 0 798 0H430Q309 0 217 97Q130 189 130 316Q130 316 130 698Z"/><path transform="translate(25372 0)" d="M728 986Q776 960 776 921Q776 843 707 843Q689 843 650 858Q498 917 387 917Q246 917 246 794Q246 723 321 688L690 515Q854 440 854 273Q854 140 735 49Q676 4 585 4Q400 4 165 80Q100 101 100 150Q100 224 166 224Q205 224 246 208Q396 150 564 150Q623 150 654 170Q707 204 707 274Q707 342 614 386L260 555Q100 631 100 806Q100 907 171 982Q248 1063 367 1063Q584 1063 728 986Z"/><path transform="translate(26326 0)" d="M280 604H739Q739 760 689 828Q626 914 515 914Q409 914 330 826Q280 770 280 604ZM130 698Q130 856 261 966Q375 1062 512 1062Q675 1062 789 937Q882 835 882 724V534Q882 462 815 462H278V330Q278 146 434 146H797Q885 146 885 72Q885 0 798 0H430Q309 0 217 97Q130 189 130 316Q130 316 130 698Z"/><path transform="translate(27341 0)" d="M414 461Q331 461 289.5 411.5Q248 362 248 302Q248 236 295.5 193.5Q343 151 400 151H706V461ZM254 915Q179 915 179 989Q179 1061 254 1061H565Q694 1061 775.0 964.5Q856 868 856 766V94Q856 51 833.0 25.5Q810 0 770 0H390Q277 0 188.5 92.0Q100 184 100 300Q100 429 184.5 517.5Q269 606 394 606H706V790Q706 828 661.0 871.5Q616 915 561 915Z"/><path transform="translate(28327 0)" d="M130 979Q130 1061 215 1061Q215 1061 650 1061Q734 1061 734 992Q734 992 734 845Q734 762 668 762Q588 762 588 840Q588 840 588 914H278V82Q278 3 201 3Q130 3 130 85Q130 85 130 979Z"/><path transform="translate(29161 0)" d="M653 1062Q729 1062 729 992Q729 917 653 917Q653 917 454 917Q276 917 276 749Q276 749 276 332Q276 151 444 151H648Q729 151 729 74Q729 4 652 4Q652 4 419 4Q299 4 212 92Q130 175 130 296Q130 296 130 753Q130 890 210 970Q302 1062 440 1062Q440 1062 653 1062Z"/><path transform="translate(29990 0)" d="M150 1426Q150 1515 225 1515Q296 1515 296 1430V1060H606Q725 1060 823 967Q901 893 901 761V84Q901 6 835 6Q758 6 758 86V744Q758 916 582 916H296V87Q296 6 220 6Q150 6 150 92Z"/><path transform="translate(31021 0)" d="M280 604H739Q739 760 689 828Q626 914 515 914Q409 914 330 826Q280 770 280 604ZM130 698Q130 856 261 966Q375 1062 512 1062Q675 1062 789 937Q882 835 882 724V534Q882 462 815 462H278V330Q278 146 434 146H797Q885 146 885 72Q885 0 798 0H430Q309 0 217 97Q130 189 130 316Q130 316 130 698Z"/><path transform="translate(32036 0)" d="M130 979Q130 1061 215 1061Q215 1061 650 1061Q734 1061 734 992Q734 992 734 845Q734 762 668 762Q588 762 588 840Q588 840 588 914H278V82Q278 3 201 3Q130 3 130 85Q130 85 130 979Z"/><path transform="translate(33760 0)" d="M130 67Q130 89 148 130L730 1447Q758 1510 804 1510Q876 1510 876 1442Q876 1416 866 1391L279 62Q252 0 208 0Q130 0 130 67Z"/><path transform="translate(35656 0)" d="M1062 460Q1062 240 922.5 120.0Q783 0 659 0H220Q150 0 150 91V1416Q150 1510 243 1510H555Q745 1510 832 1434Q984 1301 984 1132Q984 948 844 838Q937 784 999.5 683.0Q1062 582 1062 460ZM304 748V139H616Q752 139 834.0 233.0Q916 327 916 441Q916 555 839 652Q763 748 619 748ZM304 1361V904H609Q724 904 781.5 966.5Q839 1029 839 1122Q839 1216 778.0 1288.5Q717 1361 605 1361Z"/><path transform="translate(36848 0)" d="M130 971Q130 1058 202 1058Q273 1058 273 969Q273 969 273 305Q273 236 317 193Q364 147 424 147H737V975Q737 1054 812 1054Q882 1054 882 973V82Q882 0 807 0H414Q294 0 206 94Q130 175 130 302Q130 302 130 971Z"/><path transform="translate(37860 0)" d="M297 980V88Q297 5 225 5Q150 5 150 86V979Q150 1061 224 1061Q297 1061 297 980ZM153 1445Q153 1515 222 1515Q296 1515 296 1440V1375Q296 1297 220 1297Q153 1297 153 1370Z"/><path transform="translate(38307 0)" d="M150 1432Q150 1511 230 1511Q297 1511 297 1429Q297 1429 297 259Q297 148 365 148Q448 148 448 73Q448 0 370 0Q279 0 211 71Q150 135 150 235Q150 235 150 1432Z"/><path transform="translate(38855 0)" d="M445 916Q272 916 272 724Q272 724 272 330Q272 151 456 151Q456 151 735 151Q735 151 735 916Q735 916 445 916ZM735 1438Q735 1515 808.0 1515.0Q881 1515 881 1433V94Q881 0 786 0H439Q309 0 228 81Q130 179 130 297V774Q130 871 199 955Q286 1061 444 1061H735Z"/><path transform="translate(39886 0)" d="M280 604H739Q739 760 689 828Q626 914 515 914Q409 914 330 826Q280 770 280 604ZM130 698Q130 856 261 966Q375 1062 512 1062Q675 1062 789 937Q882 835 882 724V534Q882 462 815 462H278V330Q278 146 434 146H797Q885 146 885 72Q885 0 798 0H430Q309 0 217 97Q130 189 130 316Q130 316 130 698Z"/><path transform="translate(40901 0)" d="M130 979Q130 1061 215 1061Q215 1061 650 1061Q734 1061 734 992Q734 992 734 845Q734 762 668 762Q588 762 588 840Q588 840 588 914H278V82Q278 3 201 3Q130 3 130 85Q130 85 130 979Z"/></g>
    <animate attributeName="opacity" from="0" to="1" dur="0.9s" begin="1.0s" fill="freeze"/>
  </g>

  <!-- laser-optics animation: diode source -> beam -> mirror -> sample -->
  <g>
    <rect x="588" y="61" width="22" height="16" rx="2" fill="#1e293b" stroke="#ff5a4d" stroke-width="1.2"/>
    <text x="599" y="57" text-anchor="middle" font-family="ui-monospace, monospace" font-size="9" fill="#64748b">LASER</text>
    <circle cx="611" cy="69" r="2.5" fill="#ff5a4d">
      <animate attributeName="r" values="2;5;2" dur="1.3s" repeatCount="indefinite"/>
      <animate attributeName="opacity" values="1;0.2;1" dur="1.3s" repeatCount="indefinite"/>
    </circle>
    <path d="M611 69 L762 69 L762 110" fill="none" stroke="#ff3b30" stroke-width="5" stroke-linecap="round" stroke-linejoin="round" opacity="0.16"/>
    <path id="beam" d="M611 69 L762 69 L762 110" fill="none" stroke="#ff6a5d" stroke-width="1.6" stroke-linecap="round" stroke-linejoin="round">
      <animate attributeName="opacity" values="0.55;1;0.7;1;0.6" dur="1.4s" repeatCount="indefinite"/>
    </path>
    <line x1="753" y1="60" x2="771" y2="78" stroke="#cbd5e1" stroke-width="3" stroke-linecap="round"/>
    <circle r="5" fill="#ff3b30" opacity="0.5"><animateMotion dur="1.4s" repeatCount="indefinite"><mpath href="#beam"/></animateMotion></circle>
    <circle r="2.2" fill="#ffffff"><animateMotion dur="1.4s" repeatCount="indefinite"><mpath href="#beam"/></animateMotion></circle>
    <circle cx="762" cy="112" r="4" fill="#22d3ee"/>
    <circle cx="762" cy="112" r="4" fill="none" stroke="#22d3ee" stroke-width="1.5">
      <animate attributeName="r" values="3;12;3" dur="1.4s" repeatCount="indefinite"/>
      <animate attributeName="opacity" values="0.9;0;0.9" dur="1.4s" repeatCount="indefinite"/>
    </circle>
  </g>
</svg>
