<svg xmlns="http://www.w3.org/2000/svg" width="453" height="64" viewBox="0 0 453 64" fill="none" role="img" aria-label="I'm a 'computer guy!' in a laser physics lab.">
  <defs>
    <linearGradient id="roleGrad" x1="0" y1="0" x2="1" y2="0">
      <stop offset="0%" stop-color="#6366f1"/><stop offset="100%" stop-color="#22d3ee"/>
    </linearGradient>
    <clipPath id="reveal"><rect x="16" y="12" width="0" height="42">
      <animate attributeName="width" values="0;411;411;0" keyTimes="0;0.5;0.93;1" dur="7s" repeatCount="indefinite"/>
    </rect></clipPath>
  </defs>
  <rect x="0" y="0" width="453" height="64" rx="12" fill="#0d1117"/>
  <g clip-path="url(#reveal)"><g transform="translate(16 44) scale(0.0107421875 -0.0107421875)" fill="url(#roleGrad)"><path transform="translate(0 0)" d="M150 94V1420Q150 1510 226.0 1510.0Q302 1510 302 1417V96Q302 0 226.0 0.0Q150 0 150 94Z"/><path transform="translate(452 0)" d="M172 1745Q189 1812 242 1812Q317 1812 317 1747Q317 1723 311 1699L246 1436Q228 1366 172 1366Q100 1366 100 1434Q100 1456 110 1497Z"/><path transform="translate(869 0)" d="M130 991Q130 1026 156 1050Q172 1065 213 1065Q213 1065 869 1065Q999 1065 1084 987Q1185 895 1185 776Q1185 776 1185 92Q1185 4 1115 4Q1038 4 1038 95Q1038 95 1038 761Q1038 830 996 870Q947 917 874 917H732V94Q732 7 661 7Q581 7 581 87V917H274V82Q274 6 202.0 6.0Q130 6 130 77Z"/><path transform="translate(3074 0)" d="M414 461Q331 461 289.5 411.5Q248 362 248 302Q248 236 295.5 193.5Q343 151 400 151H706V461ZM254 915Q179 915 179 989Q179 1061 254 1061H565Q694 1061 775.0 964.5Q856 868 856 766V94Q856 51 833.0 25.5Q810 0 770 0H390Q277 0 188.5 92.0Q100 184 100 300Q100 429 184.5 517.5Q269 606 394 606H706V790Q706 828 661.0 871.5Q616 915 561 915Z"/><path transform="translate(4950 0)" d="M172 1745Q189 1812 242 1812Q317 1812 317 1747Q317 1723 311 1699L246 1436Q228 1366 172 1366Q100 1366 100 1434Q100 1456 110 1497Z"/><path transform="translate(5367 0)" d="M653 1062Q729 1062 729 992Q729 917 653 917Q653 917 454 917Q276 917 276 749Q276 749 276 332Q276 151 444 151H648Q729 151 729 74Q729 4 652 4Q652 4 419 4Q299 4 212 92Q130 175 130 296Q130 296 130 753Q130 890 210 970Q302 1062 440 1062Q440 1062 653 1062Z"/><path transform="translate(6196 0)" d="M353 862Q273 803 273 679V372Q273 259 383 190Q447 150 511.0 150.0Q575 150 640 194Q738 260 738 403V658Q738 785 663 853Q591 919 511.0 919.0Q431 919 353 862ZM493 1063Q661 1063 767 958Q879 847 879 722V374Q879 206 758 100Q653 8 504 8Q345 8 251 104Q130 227 130 379V706Q130 867 269 980Q371 1063 493 1063Z"/><path transform="translate(7205 0)" d="M130 991Q130 1026 156 1050Q172 1065 213 1065Q213 1065 869 1065Q999 1065 1084 987Q1185 895 1185 776Q1185 776 1185 92Q1185 4 1115 4Q1038 4 1038 95Q1038 95 1038 761Q1038 830 996 870Q947 917 874 917H732V94Q732 7 661 7Q581 7 581 87V917H274V82Q274 6 202.0 6.0Q130 6 130 77Z"/><path transform="translate(8520 0)" d="M618 144Q684 144 730 205Q760 245 760 306V744Q760 816 718 861Q674 908 607 908H297V144ZM150 969Q150 1054 235 1054Q235 1054 622 1054Q737 1054 829 955Q909 869 909 749Q909 749 909 327Q909 185 838 103Q749 0 625 0H297V-365Q297 -456 219 -456Q150 -456 150 -361Q150 -361 150 969Z"/><path transform="translate(9559 0)" d="M130 971Q130 1058 202 1058Q273 1058 273 969Q273 969 273 305Q273 236 317 193Q364 147 424 147H737V975Q737 1054 812 1054Q882 1054 882 973V82Q882 0 807 0H414Q294 0 206 94Q130 175 130 302Q130 302 130 971Z"/><path transform="translate(10571 0)" d="M210 1435Q210 1511 285 1511Q354 1511 354 1431Q354 1431 354 1054Q354 1054 583 1054Q661 1054 661 976Q661 912 581 912H354V77Q354 0 282.0 0.0Q210 0 210 84V912H134Q60 912 60 982Q60 1054 133 1054H210Z"/><path transform="translate(11282 0)" d="M280 604H739Q739 760 689 828Q626 914 515 914Q409 914 330 826Q280 770 280 604ZM130 698Q130 856 261 966Q375 1062 512 1062Q675 1062 789 937Q882 835 882 724V534Q882 462 815 462H278V330Q278 146 434 146H797Q885 146 885 72Q885 0 798 0H430Q309 0 217 97Q130 189 130 316Q130 316 130 698Z"/><path transform="translate(12297 0)" d="M130 979Q130 1061 215 1061Q215 1061 650 1061Q734 1061 734 992Q734 992 734 845Q734 762 668 762Q588 762 588 840Q588 840 588 914H278V82Q278 3 201 3Q130 3 130 85Q130 85 130 979Z"/><path transform="translate(14021 0)" d="M445 911Q375 911 324 867Q272 822 272 743V326Q272 236 316 189Q357 145 438 145H734V911ZM433 1057Q433 1057 804 1057Q879 1057 879 975Q879 975 879 -181Q879 -295 794 -376Q710 -456 594 -456Q594 -456 281 -456Q203 -456 203 -385Q203 -311 285 -311Q285 -311 537 -311Q731 -311 731 -169V0Q731 0 407 0Q285 0 207 91Q130 181 130 306Q130 306 130 764Q130 887 214 969Q304 1057 433 1057Z"/><path transform="translate(15050 0)" d="M130 971Q130 1058 202 1058Q273 1058 273 969Q273 969 273 305Q273 236 317 193Q364 147 424 147H737V975Q737 1054 812 1054Q882 1054 882 973V82Q882 0 807 0H414Q294 0 206 94Q130 175 130 302Q130 302 130 971Z"/><path transform="translate(16062 0)" d="M835 915 399 -387Q376 -456 310 -456Q310 -456 181 -456Q100 -456 100 -385Q100 -311 184 -311H269Q269 -311 392 61L113 920Q100 957 100 985Q100 1054 173 1054Q225 1054 247 985L471 296L708 993Q729 1054 777 1054Q851 1054 851 985Q851 963 835 915Z"/><path transform="translate(17013 0)" d="M221 228Q300 228 300 113Q300 7 225.0 7.0Q150 7 150.0 117.5Q150 228 221 228ZM150 558V1427Q150 1519 225.0 1519.0Q300 1519 300 1426V558Q300 463 225.0 463.0Q150 463 150 558Z"/><path transform="translate(17463 0)" d="M172 1745Q189 1812 242 1812Q317 1812 317 1747Q317 1723 311 1699L246 1436Q228 1366 172 1366Q100 1366 100 1434Q100 1456 110 1497Z"/><path transform="translate(18770 0)" d="M297 980V88Q297 5 225 5Q150 5 150 86V979Q150 1061 224 1061Q297 1061 297 980ZM153 1445Q153 1515 222 1515Q296 1515 296 1440V1375Q296 1297 220 1297Q153 1297 153 1370Z"/><path transform="translate(19217 0)" d="M130 988Q130 1063 203 1063Q203 1063 588 1063Q709 1063 807 966Q881 893 881 774Q881 774 881 103Q881 7 811 7Q735 7 735 105Q735 105 735 762Q735 835 696 870Q649 914 593 914Q593 914 271 914V92Q271 8 201 8Q130 8 130 91Q130 91 130 988Z"/><path transform="translate(21118 0)" d="M414 461Q331 461 289.5 411.5Q248 362 248 302Q248 236 295.5 193.5Q343 151 400 151H706V461ZM254 915Q179 915 179 989Q179 1061 254 1061H565Q694 1061 775.0 964.5Q856 868 856 766V94Q856 51 833.0 25.5Q810 0 770 0H390Q277 0 188.5 92.0Q100 184 100 300Q100 429 184.5 517.5Q269 606 394 606H706V790Q706 828 661.0 871.5Q616 915 561 915Z"/><path transform="translate(22994 0)" d="M150 1432Q150 1511 230 1511Q297 1511 297 1429Q297 1429 297 259Q297 148 365 148Q448 148 448 73Q448 0 370 0Q279 0 211 71Q150 135 150 235Q150 235 150 1432Z"/><path transform="translate(23542 0)" d="M414 461Q331 461 289.5 411.5Q248 362 248 302Q248 236 295.5 193.5Q343 151 400 151H706V461ZM254 915Q179 915 179 989Q179 1061 254 1061H565Q694 1061 775.0 964.5Q856 868 856 766V94Q856 51 833.0 25.5Q810 0 770 0H390Q277 0 188.5 92.0Q100 184 100 300Q100 429 184.5 517.5Q269 606 394 606H706V790Q706 828 661.0 871.5Q616 915 561 915Z"/><path transform="translate(24528 0)" d="M728 986Q776 960 776 921Q776 843 707 843Q689 843 650 858Q498 917 387 917Q246 917 246 794Q246 723 321 688L690 515Q854 440 854 273Q854 140 735 49Q676 4 585 4Q400 4 165 80Q100 101 100 150Q100 224 166 224Q205 224 246 208Q396 150 564 150Q623 150 654 170Q707 204 707 274Q707 342 614 386L260 555Q100 631 100 806Q100 907 171 982Q248 1063 367 1063Q584 1063 728 986Z"/><path transform="translate(25482 0)" d="M280 604H739Q739 760 689 828Q626 914 515 914Q409 914 330 826Q280 770 280 604ZM130 698Q130 856 261 966Q375 1062 512 1062Q675 1062 789 937Q882 835 882 724V534Q882 462 815 462H278V330Q278 146 434 146H797Q885 146 885 72Q885 0 798 0H430Q309 0 217 97Q130 189 130 316Q130 316 130 698Z"/><path transform="translate(26497 0)" d="M130 979Q130 1061 215 1061Q215 1061 650 1061Q734 1061 734 992Q734 992 734 845Q734 762 668 762Q588 762 588 840Q588 840 588 914H278V82Q278 3 201 3Q130 3 130 85Q130 85 130 979Z"/><path transform="translate(28221 0)" d="M618 144Q684 144 730 205Q760 245 760 306V744Q760 816 718 861Q674 908 607 908H297V144ZM150 969Q150 1054 235 1054Q235 1054 622 1054Q737 1054 829 955Q909 869 909 749Q909 749 909 327Q909 185 838 103Q749 0 625 0H297V-365Q297 -456 219 -456Q150 -456 150 -361Q150 -361 150 969Z"/><path transform="translate(29260 0)" d="M150 1426Q150 1515 225 1515Q296 1515 296 1430V1060H606Q725 1060 823 967Q901 893 901 761V84Q901 6 835 6Q758 6 758 86V744Q758 916 582 916H296V87Q296 6 220 6Q150 6 150 92Z"/><path transform="translate(30291 0)" d="M835 915 399 -387Q376 -456 310 -456Q310 -456 181 -456Q100 -456 100 -385Q100 -311 184 -311H269Q269 -311 392 61L113 920Q100 957 100 985Q100 1054 173 1054Q225 1054 247 985L471 296L708 993Q729 1054 777 1054Q851 1054 851 985Q851 963 835 915Z"/><path transform="translate(31242 0)" d="M728 986Q776 960 776 921Q776 843 707 843Q689 843 650 858Q498 917 387 917Q246 917 246 794Q246 723 321 688L690 515Q854 440 854 273Q854 140 735 49Q676 4 585 4Q400 4 165 80Q100 101 100 150Q100 224 166 224Q205 224 246 208Q396 150 564 150Q623 150 654 170Q707 204 707 274Q707 342 614 386L260 555Q100 631 100 806Q100 907 171 982Q248 1063 367 1063Q584 1063 728 986Z"/><path transform="translate(32196 0)" d="M297 980V88Q297 5 225 5Q150 5 150 86V979Q150 1061 224 1061Q297 1061 297 980ZM153 1445Q153 1515 222 1515Q296 1515 296 1440V1375Q296 1297 220 1297Q153 1297 153 1370Z"/><path transform="translate(32643 0)" d="M653 1062Q729 1062 729 992Q729 917 653 917Q653 917 454 917Q276 917 276 749Q276 749 276 332Q276 151 444 151H648Q729 151 729 74Q729 4 652 4Q652 4 419 4Q299 4 212 92Q130 175 130 296Q130 296 130 753Q130 890 210 970Q302 1062 440 1062Q440 1062 653 1062Z"/><path transform="translate(33472 0)" d="M728 986Q776 960 776 921Q776 843 707 843Q689 843 650 858Q498 917 387 917Q246 917 246 794Q246 723 321 688L690 515Q854 440 854 273Q854 140 735 49Q676 4 585 4Q400 4 165 80Q100 101 100 150Q100 224 166 224Q205 224 246 208Q396 150 564 150Q623 150 654 170Q707 204 707 274Q707 342 614 386L260 555Q100 631 100 806Q100 907 171 982Q248 1063 367 1063Q584 1063 728 986Z"/><path transform="translate(35316 0)" d="M150 1432Q150 1511 230 1511Q297 1511 297 1429Q297 1429 297 259Q297 148 365 148Q448 148 448 73Q448 0 370 0Q279 0 211 71Q150 135 150 235Q150 235 150 1432Z"/><path transform="translate(35864 0)" d="M414 461Q331 461 289.5 411.5Q248 362 248 302Q248 236 295.5 193.5Q343 151 400 151H706V461ZM254 915Q179 915 179 989Q179 1061 254 1061H565Q694 1061 775.0 964.5Q856 868 856 766V94Q856 51 833.0 25.5Q810 0 770 0H390Q277 0 188.5 92.0Q100 184 100 300Q100 429 184.5 517.5Q269 606 394 606H706V790Q706 828 661.0 871.5Q616 915 561 915Z"/><path transform="translate(36850 0)" d="M585 148Q757 148 757 318Q757 318 757 747Q757 824 711.5 869.5Q666 915 593 915H291V148ZM240 4Q150 4 150 72V1441Q150 1515 219 1515Q293 1515 293 1441V1058H623Q750 1058 843 944Q900 874 900 780V278Q900 161 813.5 82.5Q727 4 599 4Z"/><path transform="translate(37880 0)" d="M200 214Q282 214 282 100Q282 0 205 0Q130 0 130.0 107.0Q130 214 200 214Z"/></g></g>
  <rect y="16" width="3" height="34" fill="#22d3ee">
    <animate attributeName="x" values="16;427;427;16" keyTimes="0;0.5;0.93;1" dur="7s" repeatCount="indefinite"/>
    <animate attributeName="opacity" values="1;1;0;0;1" dur="0.8s" repeatCount="indefinite"/>
  </rect>
</svg>
